<svg width="32" height="32" viewBox="0 0 32 32" fill="none" xmlns="http://www.w3.org/2000/svg">
<path d="M15.9998 13.0909V19.2874H24.6108C24.2326 21.2801 23.0979 22.9674 21.3961 24.102L26.5889 28.1311C29.6143 25.3385 31.3598 21.2366 31.3598 16.3638C31.3598 15.2293 31.258 14.1383 31.0689 13.0911L15.9998 13.0909Z" fill="#4285F4"/>
<path d="M7.03295 19.0455L5.86179 19.942L1.71625 23.171C4.34898 28.3928 9.74498 32.0002 15.9995 32.0002C20.3194 32.0002 23.9412 30.5747 26.5886 28.1311L21.3958 24.102C19.9704 25.062 18.1522 25.6439 15.9995 25.6439C11.8395 25.6439 8.30505 22.8366 7.03949 19.0547L7.03295 19.0455Z" fill="#34A853"/>
<path d="M1.71625 8.82913C0.625393 10.9818 0 13.4109 0 16C0 18.589 0.625393 21.0182 1.71625 23.1708C1.71625 23.1853 7.04001 19.0399 7.04001 19.0399C6.72001 18.0799 6.53086 17.0618 6.53086 15.9998C6.53086 14.9379 6.72001 13.9197 7.04001 12.9597L1.71625 8.82913Z" fill="#FBBC05"/>
<path d="M15.9998 6.37094C18.3562 6.37094 20.4508 7.18547 22.1235 8.75641L26.7053 4.17462C23.9271 1.58556 20.3199 0 15.9998 0C9.74531 0 4.34898 3.59274 1.71625 8.82915L7.03984 12.9601C8.30523 9.17821 11.8398 6.37094 15.9998 6.37094Z" fill="#EA4335"/>
</svg>
